HIERARCHY
ROOT ui
{
	 OFFSET 0 0 0
	 CHANNELS 3 XPosition YPosition Z Position
	 EndSite
	 {
	 OFFSET 0 -1 0
	 }
}
ROOT li
{
	 OFFSET 0 0 0
	 CHANNELS 3 XPosition YPosition Z Position
	 EndSite
	 {
	 OFFSET 0 -1 0
	 }
}
ROOT ul
{
	 OFFSET 0 0 0
	 CHANNELS 3 XPosition YPosition Z Position
	 EndSite
	 {
	 OFFSET 0 -1 0
	 }
}
ROOT ll
{
	 OFFSET 0 0 0
	 CHANNELS 3 XPosition YPosition Z Position
	 EndSite
	 {
	 OFFSET 0 -1 0
	 }
}
ROOT tt
{
	 OFFSET 0 0 0
	 CHANNELS 3 XPosition YPosition Z Position
	 EndSite
	 {
	 OFFSET 0 -1 0
	 }
}
ROOT tb
{
	 OFFSET 0 0 0
	 CHANNELS 3 XPosition YPosition Z Position
	 EndSite
	 {
	 OFFSET 0 -1 0
	 }
}
ROOT td
{
	 OFFSET 0 0 0
	 CHANNELS 3 XPosition YPosition Z Position
	 EndSite
	 {
	 OFFSET 0 -1 0
	 }
}
ROOT v
{
	 OFFSET 0 0 0
	 CHANNELS 3 XPosition YPosition Z Position
	 EndSite
	 {
	 OFFSET 0 -1 0
	 }
}
ROOT bn
{
	 OFFSET 0 0 0
	 CHANNELS 3 XPosition YPosition Z Position
	 EndSite
	 {
	 OFFSET 0 -1 0
	 }
}
MOTION
Frames: 27
Frame Time: 0.002
0.010825739860534669	-4.889020025730134E-4	0		0.5346558837890625	-2.401577880859375	0		-1.0412908935546874	0.08343657684326172	0		-0.6720538940429688	-2.633921142578125	0		1.5707943115234375	-0.7182088623046875	0		3.313625	-0.036910736083984375	0		4.9372685546875	0.010697038650512695	0		5.65088330078125	0.19554769897460939	0		-0.32025857543945313	5.9076416015625	0		
-0.06375344467163085	0.0013088669776916504	0		0.48606454467773436	-2.394093017578125	0		-1.147922119140625	0.08063273620605468	0		-0.6588386840820313	-2.643100341796875	0		1.57317529296875	-0.7183370361328125	0		3.311108154296875	-0.03003965187072754	0		4.9427529296875	0.017424028396606447	0		5.6525947265625	0.19509986877441407	0		-0.3176605224609375	5.9075751953125	0		
0.028685047149658204	-0.006800980091094971	0		0.5185426025390625	-2.391537841796875	0		-1.1322708740234375	0.09143456268310547	0		-0.7103518676757813	-2.638550537109375	0		1.5848006591796875	-0.7075784912109375	0		3.32752783203125	-0.03939361572265625	0		4.93934619140625	0.02324367904663086	0		5.6573017578125	0.20666560363769532	0		-0.3528498229980469	5.91593115234375	0		
-0.03860397720336914	0.0018998030424118041	0		0.4961272277832031	-2.387366943359375	0		-1.0906552734375	0.09092809295654297	0		-0.645781005859375	-2.635333740234375	0		1.587392822265625	-0.7077278442382813	0		3.35642578125	-0.01489852523803711	0		4.95686962890625	0.014814091682434081	0		5.65916357421875	0.2061825714111328	0		-0.31598687744140624	5.9204560546875	0		
0.021050580978393553	-8.608949780464173E-4	0		0.5216494140625	-2.3947548828125	0		-1.1070386962890626	0.0850726547241211	0		-0.7270420532226562	-2.6224599609375	0		1.5809256591796874	-0.7187842407226562	0		3.32384521484375	-0.03771335220336914	0		4.9456669921875	0.024704660415649414	0		5.6610732421875	0.20568246459960937	0		-0.2951497497558594	5.9171513671875	0		
-0.04027862167358399	-0.005245704174041748	0		0.496299072265625	-2.39456982421875	0		-1.1043118896484374	0.08498795318603515	0		-0.646613525390625	-2.641451904296875	0		1.5836268310546875	-0.7189544677734375	0		3.321648681640625	-0.03088213539123535	0		4.9453232421875	0.01846211624145508	0		5.66010302734375	0.1931382598876953	0		-0.2922372741699219	5.917041015625	0		
0.02652058982849121	-0.0011127970218658446	0		0.52696875	-2.395038330078125	0		-1.101563232421875	0.08489175415039063	0		-0.7128529052734375	-2.632767822265625	0		1.5863504638671875	-0.71913427734375	0		3.329312744140625	-0.03817313766479492	0		4.9509541015625	0.00814385986328125	0		5.66205859375	0.19261256408691407	0		-0.2893072509765625	5.91691943359375	0		
-0.044667625427246095	0.004600865840911865	0		0.5047048950195312	-2.389906005859375	0		-1.0797435302734375	0.09056500244140625	0		-0.66229052734375	-2.642440185546875	0		1.5921123046875	-0.7163572387695313	0		3.346302490234375	-0.017577051162719726	0		4.96286474609375	0.021749164581298826	0		5.6711240234375	0.1866890869140625	0		-0.30433187866210937	5.92099560546875	0		
0.044934444427490235	-0.0075531997680664065	0		0.53434521484375	-2.3923818359375	0		-1.0829473876953124	0.09551730346679688	0		-0.7055021362304688	-2.631037353515625	0		1.5948265380859374	-0.71655224609375	0		3.338864013671875	-0.0327065315246582	0		4.95560107421875	0.021571395874023437	0		5.66887451171875	0.20356858825683594	0		-0.3175267028808594	5.9120419921875	0		
-0.03922703170776367	0.004299578189849854	0		0.536983154296875	-2.392552001953125	0		-1.093366455078125	0.08454408264160156	0		-0.6428401489257812	-2.62886962890625	0		1.5944769287109375	-0.7197173461914063	0		3.359718017578125	-0.020165563583374024	0		4.96423681640625	0.015207533836364745	0		5.667890625	0.19099948120117188	0		-0.265472900390625	5.92732568359375	0		
0.041415195465087894	0.002232316017150879	0		0.535520263671875	-2.39768017578125	0		-1.090705078125	0.08441264343261719	0		-0.6772372436523437	-2.62758251953125	0		1.59711669921875	-0.719920654296875	0		3.3442265625	-0.03320570755004883	0		4.96605908203125	0.02892483329772949	0		5.66978515625	0.19046330261230468	0		-0.27778240966796874	5.91634716796875	0		
-0.02712367630004883	-0.00910434341430664	0		0.53805615234375	-2.397858154296875	0		-1.0881068115234376	0.08427561187744141	0		-0.6308734130859375	-2.6422421875	0		1.5996947021484376	-0.7201253051757812	0		3.331927734375	-0.02427996253967285	0		4.96949267578125	0.014624752044677735	0		5.67163427734375	0.18993568420410156	0		-0.3090934143066406	5.9115869140625	0		
-0.005468658924102783	0.0025069119930267334	0		0.5196231079101562	-2.38879248046875	0		-1.10551708984375	0.09036779022216797	0		-0.682368408203125	-2.63776318359375	0		1.608275634765625	-0.7133997802734375	0		3.354243408203125	-0.041756832122802734	0		4.96691650390625	0.006401182174682617	0		5.676337890625	0.20145018005371093	0		-0.29034671020507813	5.91923974609375	0		
-0.0249996280670166	0.0065978231430053715	0		0.5489678344726563	-2.391285888671875	0		-1.06409716796875	0.08976816558837891	0		-0.6100786743164063	-2.644734375	0		1.61068115234375	-0.713600341796875	0		3.378036376953125	-0.010242436408996582	0		4.9685009765625	0.020140186309814453	0		5.68225830078125	0.18353669738769532	0		-0.28780062866210937	5.91907958984375	0		
0.060142051696777346	-0.008538266181945801	0		0.520213623046875	-2.3930966796875	0		-1.0768182373046875	0.08679967498779297	0		-0.6557074584960938	-2.6353251953125	0		1.6009683837890625	-0.7146536865234375	0		3.349998046875	-0.04011552810668945	0		4.97183642578125	0.021871925354003906	0		5.6767978515625	0.1884652557373047	0		-0.2674158935546875	5.9157099609375	0		
-0.02453457260131836	0.0033213660717010497	0		0.5493283081054687	-2.39658154296875	0		-1.0786634521484375	0.08370317077636719	0		-0.6305140380859375	-2.63174560546875	0		1.6090750732421875	-0.7209083862304687	0		3.341362548828125	-0.02519876480102539	0		4.96402587890625	0.02175318717956543	0		5.671224609375	0.1882433319091797	0		-0.26513711547851565	5.9155537109375	0		
-0.025531932830810546	-7.966520190238952E-4	0		0.524387451171875	-2.393424560546875	0		-1.0766131591796875	0.08356168365478515	0		-0.6545869140625	-2.639586181640625	0		1.6111162109375	-0.7210806274414062	0		3.354234619140625	-0.04051906204223633	0		4.98098046875	0.013366833686828613	0		5.6798173828125	0.18766329956054686	0		-0.26302001953125	5.91540283203125	0		
-0.02058970832824707	0.0030227079391479494	0		0.5552639770507812	-2.39391455078125	0		-1.1005859375	0.09472895812988281	0		-0.6737203979492188	-2.640479736328125	0		1.6160416259765624	-0.7182726440429688	0		3.370375732421875	-0.01985396385192871	0		4.97694677734375	0.019256725311279296	0		5.67695703125	0.20130503845214845	0		-0.28002294921875	5.920482421875	0		
-0.018858770370483398	0.002888077974319458	0		0.532038818359375	-2.389756591796875	0		-1.0598575439453124	0.09413784027099609	0		-0.620845458984375	-2.6282138671875	0		1.62081787109375	-0.7144461669921875	0		3.357860595703125	-0.040829410552978514	0		4.98867724609375	0.018994279861450195	0		5.6824033203125	0.18709117126464844	0		-0.24421173095703125	5.9259482421875	0		
-0.01729740905761719	0.0027654459476470945	0		0.584522705078125	-2.3974765625	0		-1.0673900146484374	0.08611794281005859	0		-0.6813294067382812	-2.632609130859375	0		1.610370849609375	-0.7154219360351562	0		3.37858544921875	-0.02716458702087402	0		4.97534521484375	0.028064916610717774	0		5.6864287109375	0.19894087219238282	0		-0.2577994079589844	5.915001953125	0		
-0.018952661514282227	-0.00130874502658844	0		0.5579389038085938	-2.397251708984375	0		-0.9900044555664063	0.08510542297363281	0		-0.6219052124023438	-2.63240673828125	0		1.6527427978515625	-0.717997802734375	0		3.38981201171875	-0.04135869216918946	0		4.9875595703125	0.012874238014221192	0		5.691642578125	0.18661203002929688	0		-0.1232027587890625	5.93632568359375	0		
-0.014679867744445801	0.002559420108795166	0		0.5592018432617187	-2.397339111328125	0		-1.0647745361328125	0.08588581085205078	0		-0.6786463623046874	-2.632831787109375	0		1.6189354248046874	-0.721657470703125	0		3.351217529296875	-0.02593428611755371	0		4.98285595703125	0.018924945831298827	0		5.68117431640625	0.20075924682617188	0		-0.2553288116455078	5.9147900390625	0		
-0.003728749990463257	-0.007639588832855225	0		0.537404052734375	-2.390140869140625	0		-1.0486732177734375	0.0886055908203125	0		-0.6296315307617187	-2.64248974609375	0		1.6230543212890625	-0.7187415161132813	0		3.363110595703125	-0.04107491683959961	0		4.9839248046875	0.018945926666259764	0		5.69034716796875	0.16943673706054688	0		-0.2864739074707031	5.90707763671875	0		
0.06832918548583984	0.0034617888927459717	0		0.5653612060546875	-2.3925107421875	0		-1.0536942138671874	0.09358111572265625	0		-0.6734878540039062	-2.62904833984375	0		1.6300877685546875	-0.71083935546875	0		3.394382568359375	-0.011411064147949219	0		4.97485888671875	0.02011994171142578	0		5.68972314453125	0.19901156616210938	0		-0.271572265625	5.91783837890625	0		
-0.011905097961425781	0.002355496883392334	0		0.5641900634765625	-2.394523681640625	0		-0.9769301147460937	0.09161229705810547	0		-0.6156445922851562	-2.63078466796875	0		1.61583447265625	-0.7156702880859375	0		3.359900634765625	-0.03395713806152344	0		4.98665283203125	0.021081127166748048	0		5.687373046875	0.18716949462890625	0		-0.25299400329589844	5.91456787109375	0		
-0.014303646087646484	-0.0016463819742202758	0		0.5628779907226562	-2.397519287109375	0		-1.0613607177734374	0.08553388977050781	0		-0.6749453125	-2.633142822265625	0		1.616504638671875	-0.7156564331054688	0		3.35464306640625	-0.02581954002380371	0		4.97730078125	0.02131662940979004	0		5.6878388671875	0.18740953063964844	0		-0.2666463928222656	5.90468701171875	0		
-0.010744500160217284	0.002298095941543579	0		0.5365070190429687	-2.394207763671875	0		-1.0568045654296876	0.08943203735351563	0		-0.6034193725585938	-2.640008056640625	0		1.6199251708984375	-0.7256569213867188	0		3.390061767578125	-0.034133506774902345	0		4.9827197265625	0.01340431308746338	0		5.6882080078125	0.1876969757080078	0		-0.266329345703125	5.904658203125	0		
